<?xml version="1.0" encoding="UTF-8"?> <svg xmlns="http://www.w3.org/2000/svg" width="460" height="130" viewBox="0 0 460 130" fill="none"> <g clip-path="url(#clip0_25_10015)"> <path d="M117.892 59.6467H143.232V82.9849L157.243 59.6467H185.025L163.488 90.3907L185.665 124.497H156.523L143.232 99.8381V124.497H117.892V59.6467Z" fill="white"></path> <path d="M111.527 122.296C107.564 124.417 102.12 126.259 94.5139 126.259C73.8978 126.259 59.2463 112.648 59.2463 91.8719C59.2463 68.3335 78.0611 57.485 94.1537 57.485C99.3177 57.485 106.443 58.766 111.527 62.4088V85.1066C107.644 80.1828 101.96 78.2612 97.5163 78.2612C88.1089 78.2612 83.5854 84.6663 83.5854 92.5524C83.5854 100.439 89.47 105.523 97.4362 105.523C103.041 105.523 107.924 102.921 111.527 99.5979V122.296Z" fill="white"></path> <path d="M25.2998 108.925V99.1976H28.3822C30.8241 99.1976 34.7072 99.678 34.7072 104.041C34.7072 108.405 30.704 108.965 28.3822 108.965H25.2998V108.925ZM0 59.6066V124.497H37.4293C54.963 124.497 58.766 113.008 58.766 106.403C58.766 97.5964 52.8814 91.1914 44.755 89.8303V89.6301C49.9991 88.0689 55.8037 83.4253 55.8037 76.0996C55.8037 71.0956 53.9222 59.6066 35.7079 59.6066H0ZM25.2998 84.2659V75.1788H27.6616C32.0651 75.1788 33.266 77.5007 33.266 79.7424C33.266 81.9842 32.0651 84.2659 27.6616 84.2659H25.2998Z" fill="white"></path> <path d="M333.621 67.693L326.416 68.0132L325.735 66.2118L318.77 65.7314L318.73 64.4504L311.284 64.3303L312.525 67.0124L315.847 67.4128L315.447 66.5321L318.449 68.5336L323.453 69.6945L326.776 69.8146L335.142 68.6938L333.621 67.693Z" fill="white"></path> <path d="M315.207 61.4081L311.804 60.9277C311.804 60.9277 311.884 59.7267 310.563 59.0862C309.242 58.4057 309.522 59.0462 309.522 59.0462L308.241 58.0855L305.839 57.6851L305.639 55.8837L302.557 55.7236L302.637 54.8429L300.195 54.5627L299.154 53.642L299.474 52.6412L298.874 51.7205L295.952 50.3594L293.51 49.3987L291.908 47.5572L289.987 45.9159L287.505 43.5141L281.38 41.3524L275.576 37.069L273.214 36.0682L270.732 34.8273L265.448 31.985L257.642 27.6216L240.388 19.2551L235.464 17.0533C232.662 15.8524 232.222 15.2119 232.142 14.8516C229.62 14.2512 228.779 13.8108 227.458 12.4898C226.137 12.5298 223.135 10.8085 222.334 10.0479C222.334 10.0078 217.25 8.52667 216.93 8.24645C216.93 7.9262 203.759 3.28257 202.158 2.92229C200.997 2.84222 197.835 2.24175 197.394 2.0416C196.874 2.0416 194.832 1.4011 194.032 1.32103C191.31 1.00078 188.668 0.60047 185.865 0.560439C183.864 0.560439 182.703 0.560439 180.942 0.120094C180.301 0.520408 176.178 -0.240188 174.737 0.88069C173.095 0.960752 169.292 1.80141 168.252 2.28179C166.01 2.36185 162.167 4.84379 160.886 5.48429C160.245 5.80454 159.565 6.12479 158.884 6.44504C163.008 7.88617 167.691 9.60752 167.691 9.80768C168.011 10.0879 173.095 11.5691 173.095 11.6091C173.896 12.4097 176.898 14.1311 178.219 14.091C179.54 15.4121 180.381 15.8524 182.903 16.4529C182.983 16.8132 183.423 17.4537 186.186 18.6546L191.11 20.8163L208.363 29.1828L216.169 33.5463L221.453 36.3885L223.935 37.6294L226.297 38.6302L228.219 40.0714L232.022 41.5525L240.588 44.3547L250.916 48.3979L254.759 49.7189L258.642 50.9199L260.484 50.5996L262.485 51.2801L264.727 53.2817L267.009 52.5211L268.57 52.8013L269.811 54.4026L270.612 55.3633L272.573 55.9638L274.495 56.204L276.777 55.8037L279.459 56.0439L280.419 57.6451L284.182 58.2856L286.864 58.4858L289.587 58.6859L291.668 59.6467L293.55 61.6883L296.272 62.2487L303.277 63.2495L309.602 62.4889L313.725 62.6891L315.207 61.5682V61.4081Z" fill="white"></path> <path d="M258.402 71.6961L265.848 71.7762L265.888 73.0972L272.854 73.5776L273.494 75.379L280.74 75.0587L282.301 76.0195L273.894 77.1404L270.572 77.0203L265.568 75.8994L262.526 73.8978L262.966 74.7785L259.643 74.3782L258.402 71.6961Z" fill="white"></path> <path d="M259.163 68.6137C259.163 68.6137 259.243 67.4128 257.922 66.7723C256.601 66.0917 256.881 66.7322 256.881 66.7322L255.56 65.7715L253.158 65.3712L252.958 63.5697L249.876 63.4096L249.956 62.5289L247.514 62.2487L246.473 61.328L246.793 60.2872L246.193 59.3665L243.31 57.9654L240.868 57.0046L239.267 55.1632L237.346 53.4819L234.904 51.08L228.779 48.9183L222.975 44.6349L220.613 43.6341L218.091 42.3932L212.807 39.5509L205 35.1875L187.787 26.821L182.863 24.6193C180.061 23.4183 179.621 22.7778 179.541 22.4175C177.019 21.8171 176.178 21.3767 174.857 20.0557C173.536 20.1358 170.533 18.4144 169.733 17.6138C169.733 17.5738 164.649 16.0926 164.329 15.7723C164.329 15.4921 151.158 10.8085 149.557 10.4081C148.396 10.3281 145.234 9.72761 144.793 9.52745C144.233 9.52745 142.231 8.88695 141.431 8.80689C138.709 8.48664 136.066 8.08633 133.264 8.04629C131.223 8.04629 130.102 8.04629 128.34 7.60595C127.7 8.00626 123.577 7.24567 122.096 8.32651C120.454 8.40658 116.691 9.24723 115.651 9.72761C113.409 9.80767 109.566 12.2896 108.245 12.9301C107.124 13.4906 105.803 14.051 104.762 14.6915C104.282 15.0918 97.076 18.6546 96.5956 19.0949C96.7157 19.3351 89.5501 23.6185 88.8696 24.219C88.5493 24.5392 86.6678 25.2998 86.1875 25.7802C85.7071 26.2605 83.7856 27.9819 83.1451 28.3021C82.8649 28.9026 81.0234 29.5431 80.7432 30.1436C80.3029 30.7441 78.1412 31.7849 77.7809 32.2252C77.7008 32.2652 76.4999 33.266 75.5391 34.0667C75.1388 34.5871 74.7385 35.1475 74.3382 35.6679C73.8578 35.828 71.9363 36.9489 71.4559 37.3092C71.496 38.4701 71.576 40.2715 69.7746 39.9112L67.653 41.1522C67.8932 41.1522 66.5321 43.1538 65.4112 44.5949C64.7307 45.3955 61.6483 46.5564 61.0478 47.3971C59.8068 49.1184 58.2056 50.7197 56.9646 52.401V52.5211H57.1247C57.1247 52.7613 58.3257 52.7213 58.4858 53.1616C58.726 53.8421 58.0054 54.4426 57.8053 55.003H57.9654V55.1231C58.9261 55.1231 59.8469 54.0823 60.6075 53.682C61.248 53.4418 61.8885 53.1616 62.529 52.9214C63.6899 52.2409 64.8107 51.5603 65.9316 50.8798C74.4583 46.2362 82.985 41.5925 91.5116 36.9889C95.5948 34.7872 98.8374 32.7456 103.361 30.2637C104.442 29.6632 108.565 26.901 111.647 26.7009C115.57 26.4607 120.254 27.4615 121.535 27.9819C122.736 28.4222 125.698 29.9034 127.22 30.2637C127.66 30.4238 128.541 31.0643 128.741 31.0243C128.901 31.2244 131.703 31.6648 133.184 32.1852C133.705 32.5054 134.185 32.7857 134.705 33.1059C137.147 33.8265 143.232 35.2676 145.434 35.9481C147.315 36.5086 148.436 37.5894 149.357 37.7896C150.638 38.6703 150.918 38.2299 152.479 38.9905C154.841 39.2307 156.282 40.0714 156.362 40.1514C157.083 40.4717 157.603 40.7519 158.324 41.0721C158.924 41.1522 160.085 42.0729 160.566 42.2731C161.126 42.3932 164.969 43.5541 165.329 43.7542C165.97 43.6742 168.692 44.8751 169.012 45.1553C169.773 45.5156 170.654 45.7158 171.534 45.8759L179.38 48.9583L187.947 51.7605L198.275 55.8037L202.158 57.1247L206.041 58.3256L207.843 58.0054L209.884 58.6859L212.126 60.6875L214.408 59.9269L215.969 60.2071L217.21 61.8084L218.011 62.7691L219.972 63.3296L221.894 63.5697L224.175 63.1694L226.858 63.4096L227.818 65.0109L231.581 65.6514L234.263 65.8515L236.985 66.0517L239.067 67.0124L240.949 69.054L243.671 69.6145L250.676 70.6553L257.001 69.8947L261.124 70.0949L262.605 68.974L259.203 68.4936L259.163 68.6137Z" fill="white"></path> <path d="M206.762 123.737C205.561 124.377 203.92 124.938 201.758 124.938C198.195 124.938 196.073 123.697 194.352 122.136C192.03 119.894 191.11 117.372 191.11 114.37C191.11 110.727 192.631 108.045 194.352 106.443C196.394 104.522 198.916 103.761 201.798 103.761C203.199 103.761 204.92 104.001 206.802 105.002V109.606C204.96 107.484 202.639 107.324 201.878 107.324C197.835 107.324 195.153 110.687 195.153 114.41C195.153 118.893 198.595 121.335 202.038 121.335C203.92 121.335 205.601 120.534 206.762 119.133V123.737Z" fill="white"></path> <path d="M218.291 124.497H214.328V107.644H209.804V104.242H222.854V107.644H218.291V124.497Z" fill="white"></path> <path d="M226.857 104.242V124.497H230.821V117.012H233.383C235.704 117.012 237.386 116.331 238.507 115.21C240.068 113.689 240.188 111.487 240.188 110.687C240.188 109.245 239.748 107.244 238.106 105.803C236.625 104.482 235.024 104.242 232.742 104.242H226.857ZM230.821 107.644H232.182C233.142 107.644 234.143 107.684 234.984 108.285C235.584 108.725 236.105 109.486 236.105 110.567C236.105 111.447 235.744 112.368 235.024 112.928C234.183 113.569 233.182 113.569 232.422 113.569H230.821V107.604V107.644Z" fill="white"></path> <path d="M257.121 124.497H261.364L252.838 103.841H249.835L241.069 124.497H245.352L247.153 120.254H255.32L257.121 124.497ZM248.394 117.012L251.317 109.726L254.159 117.012H248.394Z" fill="white"></path> <path d="M270.412 113.809L264.327 104.242H269.091L272.613 110.526L276.376 104.242H281.14L274.895 113.809L281.821 124.497H277.097L272.613 117.092L267.97 124.497H263.206L270.412 113.809Z" fill="white"></path> <path d="M296.112 103.801C289.747 103.801 285.303 108.245 285.303 114.41C285.303 120.574 289.747 124.978 296.112 124.978C302.477 124.978 306.92 120.574 306.92 114.41C306.92 108.245 302.477 103.801 296.112 103.801ZM296.112 121.375C292.149 121.375 289.346 118.493 289.346 114.369C289.346 110.246 292.149 107.364 296.112 107.364C300.075 107.364 302.877 110.286 302.877 114.369C302.877 118.453 300.075 121.375 296.112 121.375Z" fill="white"></path> <path d="M316.047 115.691H317.488C318.329 115.691 319.33 115.691 320.171 116.091C321.452 116.651 321.652 117.772 321.652 118.413C321.652 119.213 321.372 120.174 320.411 120.734C319.53 121.255 318.449 121.295 317.689 121.295H316.007V115.691H316.047ZM312.084 104.242V124.497H318.89C320.651 124.497 322.492 124.217 324.054 122.856C325.455 121.615 325.775 119.934 325.775 118.773C325.775 117.732 325.535 116.131 324.294 114.97C323.773 114.49 322.973 113.929 321.652 113.689C322.212 113.369 323.933 112.328 323.933 109.726C323.933 108.045 323.253 106.443 322.052 105.523C320.411 104.242 318.209 104.242 317.088 104.242H312.084ZM316.047 107.444H317.208C318.809 107.444 320.251 108.125 320.251 110.006C320.251 112.608 317.809 112.648 317.168 112.648H316.047V107.444Z" fill="white"></path> <path d="M340.787 103.801C334.422 103.801 329.978 108.245 329.978 114.41C329.978 120.574 334.422 124.978 340.787 124.978C347.152 124.978 351.595 120.574 351.595 114.41C351.595 108.245 347.152 103.801 340.787 103.801ZM340.787 121.375C336.824 121.375 334.021 118.493 334.021 114.369C334.021 110.246 336.824 107.364 340.787 107.364C344.75 107.364 347.552 110.286 347.552 114.369C347.552 118.453 344.75 121.375 340.787 121.375Z" fill="white"></path> <path d="M363.004 97.7965C363.645 99.4778 365.326 99.5579 365.726 99.5579C366.127 99.5579 367.808 99.4778 368.448 97.7965L371.171 98.8774C370.37 100.919 368.488 102.28 365.686 102.28C362.884 102.28 361.003 100.959 360.202 98.8774L362.964 97.7965H363.004ZM360.762 104.282V117.892L371.931 103.841H374.693V124.537H370.73V110.887L359.561 124.938H356.839V104.322H360.802L360.762 104.282Z" fill="white"></path> <path d="M391.386 104.242V113.048C391.386 115.851 391.066 117.372 390.666 118.373C390.065 119.894 388.904 121.175 387.463 121.095V129.061H391.106V124.497H403.556V129.061H407.199V121.095H405.077V104.242H391.386ZM395.229 107.644H401.114V121.095H392.947C393.508 120.534 394.108 119.814 394.549 118.693C394.909 117.732 395.229 116.171 395.229 113.048V107.644Z" fill="white"></path> <path d="M421.17 103.801C414.805 103.801 410.361 108.245 410.361 114.41C410.361 120.574 414.805 124.978 421.17 124.978C427.535 124.978 431.978 120.574 431.978 114.41C431.978 108.245 427.535 103.801 421.17 103.801ZM421.17 121.375C417.207 121.375 414.404 118.493 414.404 114.369C414.404 110.246 417.207 107.364 421.17 107.364C425.133 107.364 427.935 110.286 427.935 114.369C427.935 118.453 425.133 121.375 421.17 121.375Z" fill="white"></path> <path d="M436.141 124.497L439.904 103.881H442.626L448.111 117.092L453.875 103.881H456.597L460 124.497H455.997L454.155 112.008L448.631 124.738H447.51L442.186 112.008L440.144 124.497H436.141Z" fill="white"></path> </g> <defs> <clipPath id="clip0_25_10015"> <rect width="460" height="129.061" fill="white"></rect> </clipPath> </defs> </svg> 